<svg width="40" height="40" viewBox="0 0 40 40" fill="none" xmlns="http://www.w3.org/2000/svg">
<rect width="40" height="40" rx="10" fill="#232F4B"/>
<path fill-rule="evenodd" clip-rule="evenodd" d="M16.2246 14.5581C15.9806 14.8021 15.9806 15.1979 16.2246 15.4419C16.4687 15.686 16.8645 15.686 17.1085 15.4419L19.3749 13.1756V23.3333C19.3749 23.6785 19.6547 23.9583 19.9999 23.9583C20.3451 23.9583 20.6249 23.6785 20.6249 23.3333V13.1755L22.8913 15.4419C23.1354 15.686 23.5311 15.686 23.7752 15.4419C24.0193 15.1979 24.0193 14.8021 23.7752 14.558L20.4418 11.2247C20.3246 11.1075 20.1656 11.0417 19.9999 11.0417C19.8341 11.0417 19.6752 11.1075 19.5579 11.2247L16.2246 14.5581ZM15.2831 17.8909C15.499 17.6216 15.4557 17.2283 15.1864 17.0124C14.917 16.7965 14.5237 16.8398 14.3078 17.1091C13.3072 18.3573 12.7083 19.9429 12.7083 21.6667C12.7083 25.6938 15.9728 28.9583 19.9999 28.9583C24.027 28.9583 27.2916 25.6938 27.2916 21.6667C27.2916 19.9429 26.6927 18.3573 25.6921 17.1091C25.4762 16.8398 25.0828 16.7965 24.8135 17.0124C24.5442 17.2283 24.5008 17.6216 24.7167 17.8909C25.546 18.9254 26.0416 20.2373 26.0416 21.6667C26.0416 25.0034 23.3366 27.7083 19.9999 27.7083C16.6632 27.7083 13.9583 25.0034 13.9583 21.6667C13.9583 20.2373 14.4539 18.9254 15.2831 17.8909Z" fill="white"/>
</svg>
