<svg width="24" height="24" viewBox="0 0 24 24" fill="none" xmlns="http://www.w3.org/2000/svg">
<g clip-path="url(#clip0_1_775)">
<path d="M11.9996 22.8535C12.4195 22.8438 12.8225 22.6859 13.1373 22.4078C13.4521 22.1296 13.6583 21.7491 13.7196 21.3335H10.2129C10.2759 21.7604 10.4918 22.1498 10.8204 22.4294C11.1491 22.709 11.5681 22.8597 11.9996 22.8535Z" fill="#656575"/>
<path d="M21.8996 18.7536L21.673 18.5536C21.0299 17.9807 20.4671 17.3236 19.9996 16.6003C19.4891 15.602 19.1831 14.5117 19.0996 13.3936V10.1003C19.0969 9.70023 19.0612 9.3011 18.993 8.90693C17.8637 8.67482 16.8493 8.05961 16.1216 7.16545C15.3939 6.27129 14.9975 5.15312 14.9996 4.00026V3.58026C14.3036 3.23772 13.5557 3.01247 12.7863 2.91359V2.07359C12.7863 1.83755 12.6925 1.61118 12.5256 1.44427C12.3587 1.27736 12.1323 1.18359 11.8963 1.18359C11.6602 1.18359 11.4339 1.27736 11.267 1.44427C11.1001 1.61118 11.0063 1.83755 11.0063 2.07359V2.94693C9.28344 3.18996 7.70668 4.04809 6.56711 5.36288C5.42754 6.67768 4.80211 8.36035 4.80629 10.1003V13.3936C4.7228 14.5117 4.41681 15.602 3.90629 16.6003C3.44688 17.3218 2.89309 17.9788 2.25963 18.5536L2.03296 18.7536V20.6336H21.8996V18.7536Z" fill="#656575"/>
<path d="M19.9996 7.33317C21.8405 7.33317 23.3329 5.84079 23.3329 3.99984C23.3329 2.15889 21.8405 0.666504 19.9996 0.666504C18.1586 0.666504 16.6663 2.15889 16.6663 3.99984C16.6663 5.84079 18.1586 7.33317 19.9996 7.33317Z" fill="#FF2727"/>
</g>
<defs>
<clipPath id="clip0_1_775">
<rect width="24" height="24" fill="white"/>
</clipPath>
</defs>
</svg>
