<svg width="22" height="20" viewBox="0 0 22 20" fill="none" xmlns="http://www.w3.org/2000/svg">
<path d="M2.24999 19.75V6.12501L0.0524902 1.29376L1.19749 0.76001L3.60624 6.06251H18.3937L20.8025 0.76001L21.9475 1.29376L19.75 6.12501V19.75H2.24999ZM8.49999 11.625H13.5C13.6775 11.625 13.8258 11.565 13.945 11.445C14.065 11.325 14.125 11.1763 14.125 10.9988C14.125 10.8213 14.065 10.6729 13.945 10.5538C13.8258 10.4346 13.6775 10.375 13.5 10.375H8.49999C8.32249 10.375 8.17416 10.435 8.05499 10.555C7.93499 10.675 7.87499 10.8238 7.87499 11.0013C7.87499 11.1788 7.93499 11.3271 8.05499 11.4463C8.17499 11.5654 8.32332 11.625 8.49999 11.625ZM3.49999 18.5H18.5V7.31251H3.49999V18.5Z" fill="#A11E0F"/>
</svg>
